
<svg viewBox="0 0 217.333 36"><path class="text-umichblue fill-current dark:text-white" d="M436.52 10.078h3.75V270h-3.75z" transform="matrix(.13333 0 0 -.13333 0 36)"/><path class="text-maize fill-current" d="m181.762 55.43-74.461 101.718V83.16h29.578V10.078H0V83.16h27.73V196.95H0V270h107.539l74.223-102.461L255.941 270h107.5v-73.051h-27.742V83.16h27.742V10.078H226.559V83.16h29.57v73.988z" transform="matrix(.13333 0 0 -.13333 0 36)"/><path class="text-umichblue fill-current dark:text-white" d="M1539.65 10.16v2.93c3.75.27 6.64.539 6.64 3.59 0 1.09-.35 2.27-.67 3.28l-1.64 5.59h-19.37l-1.72-4.73c-.39-1.172-.7-2.27-.7-3.441 0-3.898 4.14-4.14 7.46-4.29V10.16h-22.66v2.93c5.78.27 7.66 1.398 9.77 7.18l14.88 40.82-.86 1.37c6.37 2.071 8.17 3.052 10.9 5.04 1.09-3.71 1.25-4.219 2.46-8.121l12.19-37.39c2.19-6.637 3.2-8.278 9.02-8.9V10.16zm-4.96 44.14-8.09-22.82h15.82zm-191.6-31.96c-2.43-3.942-8.29-13.668-23.48-13.668-16.56 0-27.31 12.187-27.31 28.277 0 14.89 9.11 29.532 27.66 29.532 9.81 0 15-4.102 18.2-6.602l3.72 3.402.31-16.68-2.42-.472c-.98 3.21-2.39 5.781-5.94 9.652-1.72 1.797-5.78 5.43-11.53 5.43-9.96 0-17.77-8.121-17.77-22.422 0-12.07 6.45-23.437 19.14-23.437 9.65 0 13.28 5.347 16.13 9.488zm9.25-12.18v2.93c6.25.539 6.33 1.87 6.33 7.18.08 1.96.08 3.91.08 5.859v23.05c0 3.59 0 7.192-.23 8.91-.32 3.282-1.88 3.712-6.14 4.141v2.93h23.56v-2.93c-4.61-.468-6.33-.628-6.88-3.68-.39-1.75-.43-5.82-.43-9.14v-7.57c4.73-.281 8.05-.39 12.66-.39 4.65 0 8.36.109 13.05.39v9.21c-.08 10.04-.16 10.47-7.66 11.18v2.93h23.87v-2.93c-6.41-.78-6.41-.859-6.41-11.332V27.66c0-2.148.08-9.11.35-10.75.35-2.89 2.03-3.43 6.06-3.82V10.12h-23.87v2.969c5.55.62 7.03.781 7.5 4.57.16 1.602.16 3.668.16 7.649v10.12c-4.38.122-8.01.352-12.54.352-4.77 0-8.44-.12-13.21-.351V25.309c.08-11.438.24-11.438 7.35-12.22v-2.968h-23.6zm67.93 0v2.93c5.39.738 6.49 1.32 6.57 7.11V49.53c-.08 11.41-.08 11.758-6.57 12.7v2.93h22.89v-2.93c-6.44-.63-6.44-.942-6.44-12.7V27.27c0-1.918.08-8.09.19-9.73.39-3.36 1.96-4.142 6.25-4.45v-2.93zm-156.79 0v2.93c5.39.738 6.48 1.32 6.56 7.11V49.53c-.08 11.41-.08 11.758-6.56 12.7v2.93h22.85v-2.93c-6.49-.63-6.49-.942-6.49-12.7V27.27c0-1.918.12-8.09.28-9.73.35-3.36 1.91-4.142 6.21-4.45v-2.93zm-34.65 0v2.93c6.91.46 6.91.781 6.99 10.969v27.703l-19.26-42.313h-4.84l-17.66 42.852-.43-32.34c0-5.39.63-6.41 6.49-6.871v-2.93h-19.1v2.93c4.45.27 6.17.86 6.44 4.57.16 1.48.43 6.13.47 9.18l.78 23.039c.08 1.8.08 4.46.08 6.41 0 5.473-1.09 5.86-5.98 5.942v2.93h17.31l17.15-41.763 18.86 41.762h16.76v-3.25c-6.56-.39-6.64-1.09-6.56-9.68V29.57c0-3.789.08-8.441.31-11.25.31-4.058 1.88-4.8 6.25-5.23v-2.93zm340.12 0v2.93c4.53.27 6.25.308 6.87 3.43.78 3.68 1.02 36.332 1.09 42.03-3.04 2.821-4.29 3.36-7.96 3.68v2.93h16.52c4.61-6.57 5.62-8.012 13.75-18.05l15.35-19.02v24.64c-.08 8.72-.31 9.18-9.06 9.5v2.93h21.72v-2.93c-6.06-.082-6.57-1.332-6.64-10.32l-.79-42.46h-3.28l-4.92 6.14c-2.46 3.12-5 6.25-7.46 9.289l-21.76 26.8V23.16c0-8.898.59-9.21 9.03-10.07v-2.93zm-459.22 27.57c0-19.02-12.93-29.02-27.54-29.02-16.02 0-28.52 11.56-28.52 29.099 0 15.043 10.08 28.64 27.74 28.52 16.71-.04 28.32-11.919 28.32-28.598zm-27.5-23.94c3.12.12 7.54 1.64 10.93 6.8 3.87 5.969 4.69 11.48 4.46 18.629-.24 7.07-2.19 13.203-6.25 17.5-1.76 1.91-5.24 4.691-9.85 4.531-4.61 0-8-2.89-9.72-4.8-3.91-4.462-5.67-10.63-5.67-17.7 0-7.191.94-12.66 5-18.48 3.56-5.07 7.97-6.48 11.1-6.48zm33.04-.63v-3h22.82v3c-5.71.55-6.41 1.102-6.61 7.11l.08 15.71h6.1c6.13 0 9.41-.59 9.76-6.761h2.7v18.16h-2.7c-.27-5.899-1.91-6.52-8.63-6.52h-7.23v19.102c1.96.238 3.05.27 6.53.27 10.78 0 14.21.038 15.7-8.551h2.73l-.9 13.48h-40.35v-2.93c3.95-.43 5.71-.671 6.25-3.21.39-1.72.47-7.81.47-10V29.73c0-1.53-.11-8.171-.19-9.46-.16-6.008-.82-6.56-6.53-7.11zm-473.122-2.648v2.968c5.391.7 6.442 1.32 6.524 7.11v29.289c-.082 11.492-.082 11.8-6.524 12.7v2.972H665v-2.973c-6.449-.629-6.449-.898-6.449-12.7V27.66c0-1.922.039-8.129.238-9.73.352-3.36 1.91-4.14 6.211-4.45v-2.968zm242.5 0v2.968c5.352.7 6.442 1.32 6.524 7.11v29.289c-.082 11.492-.082 11.8-6.524 12.7v2.972h22.813v-2.973c-6.481-.629-6.481-.898-6.481-12.7V27.66c0-1.922.071-8.129.231-9.73.391-3.36 1.949-4.14 6.25-4.45v-2.968zm-309.527 0v2.968c4.527.23 6.207.31 6.867 3.43.782 3.68 1.024 36.328 1.063 42.04-3.012 2.769-4.262 3.35-7.93 3.628v2.973h16.52c4.609-6.531 5.629-8.012 13.711-18.09l15.347-19.02V53.09c-.039 8.71-.269 9.21-9.019 9.488v2.973h21.64v-2.973c-5.98-.039-6.519-1.328-6.601-10.277l-.778-42.5h-3.242l-4.929 6.18c-2.5 3.12-5 6.21-7.5 9.25l-21.719 26.84V23.52c0-8.872.59-9.18 9.027-10.04v-2.968zm264.02 17.148 2.808.309c3.012-8.95 8.09-13.79 16.371-13.79 5.821 0 10.981 2.5 10.981 8.442 0 6.25-5.981 8.707-8.641 9.8-2.18.86-4.531 1.56-6.711 2.419-4.539 1.64-13.008 5.16-13.008 15.82 0 10.281 8.079 16.102 17.539 16.102 3.668 0 7.93-.82 12.61-3.793l3.359 2.422 1.801-16.372-2.73-.539c-.942 3.59-1.641 5.27-3.829 8.16-2.66 3.438-6.371 5.04-10.742 5.04-5.859 0-9.301-2.809-9.301-7.192 0-6.52 6.481-8.75 12.653-10.738 3.129-1.05 5.668-1.91 7.929-3.2 4.379-2.581 7.969-7.429 7.969-14.03 0-9.532-7.808-17.418-19.41-17.418-7.461 0-12.109 2.968-14.258 4.378l-4.57 3.32zm90.468-17.148v2.34c5.082.078 6.481 1.949 6.481 6.289v40.59h-6.828c-6.25 0-10.352.23-10.864-9.57h-2.847l.469 15.39h50l.46-15.39h-2.929c-.461 9.8-4.571 9.57-10.781 9.57h-6.872V19.14c0-4.34 1.403-6.211 6.442-6.29v-2.34ZM533.012 65.55v-2.973c-7.352-.508-7.352-.777-7.422-12.457v-12.93c0-6.722.148-12.5 3.672-17.66 2.808-4.062 7.617-4.61 10.039-4.61 7.847 0 12.179 4.099 14.097 10.59C554.922 30.622 555 40.31 555 46.68c0 2.03 0 8.59-.078 10.39-.313 5-2.891 5.16-7.813 5.508v2.973h20.981v-2.973c-5.121.121-6.25-1.059-6.531-6.527-.079-1.32-.7-16.602-.778-18.942-.16-4.18-.429-8.359-1.332-12.34-3.75-14.808-18.16-15.59-21.988-15.59-3.051 0-9.301.47-14.41 3.91-8.211 5.54-8.281 13.79-8.281 22.692v12.457c-.079 5.942-.079 8.602-.239 10-.472 3.442-2.191 4.102-6.332 4.34v2.973zm195.109 0v-2.973c-5.269-.777-6.012-2.226-10.5-13.168L700.82 9.45h-2.968l-15.043 40.59c-3.707 10.472-4.219 11.722-9.719 12.538v2.973h26.09v-2.973c-4.41-.117-7.301-.277-7.301-3.476 0-1.563.391-2.891 1.871-7.5l9.57-28.012 11.211 28.988c.699 1.91 1.641 4.41 1.641 5.82 0 3.942-3.871 4.141-7.344 4.18v2.973zm260.938-55.04v2.97c4.339.468 5.98.62 7.031 1.718 1.289 1.25 1.289 2.653 1.332 8.63v9.69l-14.613 22.653c-3.981 5.937-4.059 6.098-9.329 6.406v3.043h28.63v-3.043c-5.782-.156-8.36-.277-8.36-2.93 0-1.488 1.02-3.199 2.422-5.546l8.438-13.793 7.77 13.71c1.41 2.743 2.19 4.34 2.19 5.63 0 2.652-2.27 2.69-6.09 2.93v3.042h21.48v-3.043c-5.55-.156-7.15-1.797-13.44-12.066l-8.59-14.34v-11.48c0-9.961.08-10.743 8.24-11.172v-3.008zm-213.75 0c0 3.977.671 10.508 1.14 14.258h-2.66c-1.879-9.808-7.379-9.34-15.348-9.34-7.351 0-8.793 1.95-8.793 5.551v15.391h5.903c6.789 0 8.75-.59 8.75-6.762h2.609v18.16h-2.609c-.551-4.878-1.571-6.48-8.68-6.48h-5.973V60.66h6.762c9.371 0 12.692-.7 13.981-8.16h2.461l-.313 13.05H733.32v-2.929c3.981-.39 5.7-.633 6.25-3.242.391-1.68.43-7.738.43-9.93V30.08c0-1.49-.039-8.09-.121-9.419-.149-6.012-.859-6.558-6.559-7.11v-3.038zM1504.26 34.45V31.48c-5-.27-5-1.71-5.16-12.14V15.2c-4.26-2.66-10.39-6.49-21.17-6.49-18.95 0-28.01 14.38-28.01 28.79 0 17.621 11.92 29.102 26.88 29.102 9.41 0 14.84-3.512 19.29-6.25l2.89 3.277.43-17.219-2.22-.39c-1.17 3.242-2.85 7.03-6.99 11.171-1.84 1.79-5.32 4.098-10.9 4.098-9.57 0-17.58-8.09-17.58-23.95 0-12.648 6.25-23.468 16.95-23.468 6.13 0 9.26 4.29 9.57 4.61.98 1.48 1.21 2.808 1.14 5.23-.28 7.027-1.22 7.148-7.31 7.77v2.968zm-703.401 5.59c1.481-.309 3.59-.55 5.161-.55 6.25-.04 10.968 4.89 11.21 9.3.348 6.371-2.89 11.91-13.011 11.91-1.41 0-2.27-.078-3.36-.308zm0-11.988c.082-12.621.082-14.34 6.719-14.5v-3.04H784.57v3.04c5.942.468 6.559 1.41 6.641 7.347.078 2.262.078 4.84.078 7.07v19.923c0 6.597-.078 8.949-.309 10.738-.39 3.05-1.878 3.602-6.41 3.992v2.93l24.961-.04c13.559 0 17.848-6.492 17.848-14.14 0-5.32-3.277-12.191-10.859-14.531l9.769-16.961c3.512-6.48 5.391-7.969 9.84-8.59V9.45a39.617 39.617 0 0 0-3.629-.148c-10.352 0-14.648 3.55-19.02 12.847l-3.011 6.442c-3.278 6.96-4.379 6.531-9.571 6.61v-7.15zM597.148 103.52c-1.058 2.378-1.878 5.152-2.457 8.32-.632 3.121-1.062 6.441-1.371 9.879l-1.332 25c-.308 5.98-.898 10.941-1.828 14.84-.898 3.91-2.39 7.113-4.5 9.652-2.07 2.578-5.148 4.379-9.211 5.43-4.07 1.019-9.148 1.558-15.32 1.558H542.27V103.52h-20.942v162.421h58.512c2.82 0 6.371-.511 10.551-1.562 4.218-1.059 8.199-3.09 11.949-6.098 3.75-2.972 7.039-7.109 9.89-12.34 2.848-5.281 4.25-12.031 4.25-20.281 0-10.191-2.531-18.512-7.609-24.961-5.121-6.437-12.461-10.66-22.07-12.609 4.961-.75 9.058-2 12.379-3.828 3.281-1.801 5.941-4.262 7.851-7.422 1.949-3.129 3.399-6.879 4.297-11.25.902-4.34 1.481-9.379 1.793-15.078l.238-5.821c.27-7.07.821-13.953 1.563-20.711.738-6.75 2.027-13.589 3.828-20.46zm-1.796 119.449c0 6.91-1.211 12.07-3.59 15.551-2.422 3.429-5.282 5.82-8.563 7.179-3.32 1.332-6.359 2.11-9.219 2.27-2.851.121-4.878.121-6.089 0H542.27v-52.231h24.058c1.953 0 4.492.16 7.652.473 3.129.269 6.372 1.25 9.649 2.93 3.32 1.64 6.019 4.339 8.133 8.089 2.109 3.75 3.277 8.981 3.59 15.739zM748.121 180.66c0-10.191-.312-20-.891-29.449-.589-9.449-2.539-18.012-5.859-25.66-3.281-7.66-8.48-13.641-15.512-18.012-7.07-4.34-17.109-6.598-30.16-6.758-10.187 0-18.508 1.68-24.961 4.957-6.476 3.321-11.476 7.973-15.078 13.953-3.629 6.008-6.172 12.848-7.648 20.469-1.532 7.649-2.192 15.969-2.032 25v36.871c0 9.02.43 17.66 1.36 25.899.898 8.242 3.129 15.429 6.719 21.601 3.601 6.129 8.711 11.09 15.32 14.848 6.601 3.742 15.742 5.621 27.461 5.621 11.832 0 21.211-2.031 28.121-6.09 6.879-4.031 11.988-9.422 15.269-16.18 3.321-6.75 5.508-14.64 6.532-23.628a208.78 208.78 0 0 0 1.359-27.692zm-21.133 18.25c0 5.699-.078 11.68-.226 18-.16 6.289-1.141 12.07-2.934 17.309-1.797 5.269-4.726 9.531-8.789 12.812-4.019 3.321-10.117 5.039-18.199 5.199-10.36 0-17.86-3.089-22.5-9.218-4.649-6.172-7.07-16.371-7.231-30.633v-48.117c0-8.403.551-15.551 1.602-21.371 1.059-5.86 2.699-10.59 4.918-14.18 2.269-3.59 5.351-6.25 9.262-7.891 3.871-1.64 8.48-2.461 13.711-2.461 7.347 0 13.046 1.172 17.109 3.59 4.019 2.391 7.027 5.942 8.988 10.59 1.949 4.652 3.16 10.43 3.59 17.301.473 6.922.699 15 .699 24.301zM886.949 149.18c0-9.45-1.359-17.11-4.058-22.969-2.692-5.82-6.52-10.473-11.481-13.941-4.93-3.442-10.469-5.79-16.64-6.961-6.141-1.207-12.891-1.789-20.239-1.789h-48.402v162.421h53.793c6.168 0 11.797-.82 16.879-2.461 5.109-1.64 9.527-4.14 13.277-7.429 3.75-3.321 6.602-7.34 8.551-12.141 1.961-4.808 3.012-10.359 3.133-16.64 0-21.02-9.301-33.68-27.891-38.051v-1.129c11.25-1.488 19.57-5.391 25-11.68 5.391-6.289 8.078-15.39 8.078-27.23zm-25.859 73.55c0 6.329-1.129 11.18-3.391 14.649-2.23 3.441-5.039 5.98-8.32 7.66a28.523 28.523 0 0 1-10.359 2.93c-3.59.269-6.911.429-9.879.429H807.07V197.34h21.371c3.59 0 7.34.121 11.25.43 3.899.32 7.418 1.289 10.579 2.929 3.171 1.641 5.71 4.18 7.66 7.66 1.949 3.442 3.011 8.243 3.16 14.371zm4.691-71.992c0 5.864-1.332 11.25-4.019 16.211-2.703 4.961-7.071 8.403-13.051 10.352-3.16.898-6.992 1.488-11.481 1.801-4.5.308-9.691.429-15.511.429H807.07V121.48h13.711c5.699 0 11.25.161 16.68.469 5.391.321 10.199 1.41 14.379 3.36 4.211 1.961 7.57 4.812 10.148 8.562 2.543 3.75 3.793 9.367 3.793 16.867zM1023.09 180.66c0-10.191-.32-20-.9-29.449-.63-9.449-2.58-18.012-5.86-25.66-3.32-7.66-8.48-13.641-15.55-18.012-7.03-4.34-17.069-6.598-30.12-6.758-10.191 0-18.551 1.68-25 4.957-6.441 3.321-11.441 7.973-15.07 13.953-3.602 6.008-6.141 12.848-7.621 20.469-1.52 7.649-2.188 15.969-2.028 25v36.871c0 9.02.43 17.66 1.329 25.899.89 8.242 3.16 15.429 6.75 21.601 3.601 6.129 8.71 11.09 15.32 14.848 6.601 3.742 15.738 5.621 27.422 5.621 11.867 0 21.25-2.031 28.117-6.09 6.921-4.031 12.031-9.422 15.321-16.18 3.32-6.75 5.46-14.64 6.52-23.628a209.952 209.952 0 0 0 1.37-27.692zm-21.18 18.25c0 5.699-.07 11.68-.19 18-.16 6.289-1.13 12.07-2.931 17.309-1.801 5.269-4.73 9.531-8.789 12.812-4.059 3.321-10.121 5.039-18.238 5.199-10.352 0-17.852-3.089-22.5-9.218-4.653-6.172-7.032-16.371-7.192-30.633v-48.117c0-8.403.551-15.551 1.559-21.371 1.062-5.86 2.742-10.59 4.961-14.18 2.269-3.59 5.32-6.25 9.219-7.891 3.91-1.64 8.48-2.461 13.75-2.461 7.351 0 13.05 1.172 17.07 3.59 4.07 2.391 7.07 5.942 9.031 10.59 1.949 4.652 3.12 10.43 3.59 17.301.47 6.922.66 15 .66 24.301zM1107.46 247.969V103.52h-20.94v144.449h-42.54v17.972h106.22v-17.972zM1174.26 103.52h20.938v162.422h-20.938ZM1329.3 149.609c0-16.488-4.07-28.711-12.15-36.64-8.09-7.969-20.31-11.949-36.68-11.949-8.09 0-14.92 1.128-20.47 3.39-5.55 2.231-10.12 5.32-13.71 9.219-3.63 3.91-6.33 8.402-8.13 13.48-1.79 5.121-3.2 10.661-4.25 16.68a102.943 102.943 0 0 0-1.57 17.973c0 6.008-.07 12.148-.23 18.468v22.5c0 9.149.59 17.7 1.8 25.629 1.21 7.969 3.67 14.879 7.42 20.7 3.75 5.863 8.98 10.429 15.74 13.75 6.76 3.281 15.74 4.921 26.99 4.921 14.73 0 25.59-3.429 32.66-10.351 7.03-6.867 10.55-17.848 10.55-32.848v-4.691h-21.61v2.699c0 4.18-.27 8.012-.89 11.441-.59 3.481-1.88 6.411-3.83 8.79-1.96 2.39-4.34 4.218-7.19 5.39-2.85 1.219-6.68 1.879-11.48 2.039-7.35 0-12.97-1.488-16.88-4.5-3.91-3-6.8-6.828-8.75-11.48-1.95-4.649-2.93-9.879-2.93-15.739 0-5.859-.16-11.64-.47-17.351v-34.41c0-8.707.47-16.059 1.37-22.028.9-6.019 2.54-10.98 4.92-14.851 2.42-3.899 5.27-6.68 8.56-8.36 3.32-1.64 7.57-2.531 12.85-2.691 17.69 0 26.68 11.332 26.99 33.981h21.37zM1452.62 144.691c0-6.761-1.14-12.781-3.4-18.011-2.23-5.27-5.63-9.84-10.12-13.711-4.49-3.91-9.84-6.84-15.98-8.789-6.13-1.95-13.04-3.008-20.7-3.16-15.58 0-27.46 3.82-35.54 11.48-8.09 7.66-12.23 18.91-12.39 33.75v6.988h20.47v-4.527c0-9.301 2.5-16.563 7.42-21.801 4.96-5.269 11.8-7.961 20.51-8.121 8.52 0 15.43 2.34 20.7 6.992 5.24 4.649 7.86 10.938 7.86 18.91 0 5.7-1.72 10.618-5.16 14.84-3.48 4.18-7.66 7.578-12.62 10.117l-22.93 12.153c-11.4 6.008-19.65 12.461-24.76 19.328-5.12 6.922-7.66 15.082-7.66 24.531 0 13.52 4.34 24.11 13.05 31.719 8.71 7.66 20.54 11.492 35.54 11.492 14.57 0 25.59-3.672 33.09-11.019 7.5-7.34 11.25-18.321 11.25-32.852v-3.59h-21.6v2.93c0 8.238-1.95 14.68-5.86 19.332-3.91 4.648-10.12 7.066-18.67 7.187-8.09 0-14.38-1.988-18.91-6.058-4.49-4.063-6.72-9.84-6.72-17.34 0-4.18.9-7.93 2.7-11.25 1.79-3.281 4.18-6.211 7.19-8.75 3-2.582 6.21-4.801 9.68-6.762 3.44-1.949 6.96-3.668 10.55-5.187 6.01-2.703 11.05-5.391 15.08-8.09 4.06-2.692 6.68-4.57 7.89-5.621 7.34-5.86 12.54-11.492 15.51-16.879 3-5.391 4.53-12.152 4.53-20.231z" transform="matrix(.13333 0 0 -.13333 0 36)"/></svg>