<svg viewBox="0 0 176 36"><path class="text-umichblue fill-current dark:text-white" d="M58.208 34.995h.5V.339h-.5z"/><path class="text-maize fill-current" d="m24.235 28.948-9.928-13.563v9.87h3.943v9.74H0v-9.74h3.697V10.083H0V.338h14.338l9.897 13.667L34.13.338h14.333v9.745h-3.699v15.172h3.699v9.74h-18.25v-9.74h3.942v-9.87z"/><path class="text-umichblue fill-current dark:text-white" d="M76.265 34.995V20.26c0-1.281-.687-1.921-2.063-1.921h-2.4v16.656h-3.166V.339h6.525c1.443 0 2.484.369 3.125 1.104.635.74.96 1.812.96 3.219v8.593c0 1.214-.257 2.11-.773 2.688-.51.573-1.359.926-2.541 1.052 1.475 0 2.432.355 2.88 1.057.448.703.672 1.745.672 3.12v13.823zm-.187-29.709c0-.833-.13-1.411-.385-1.729-.256-.322-.756-.478-1.49-.478h-2.4v12.525h1.968c.833 0 1.426-.161 1.776-.478.354-.32.531-.897.531-1.73zM95.614 30.245c0 1.76-.531 3.041-1.588 3.838-1.053.802-2.365 1.203-3.933 1.203-1.79 0-3.156-.48-4.083-1.442-.927-.959-1.406-2.365-1.437-4.224V5.812c0-2.015.432-3.489 1.296-4.416.866-.927 2.27-1.39 4.224-1.39 3.678 0 5.521 1.968 5.521 5.9zM92.442 6.197c0-1.25-.177-2.16-.525-2.738-.355-.573-.944-.875-1.777-.912-.51 0-.911.098-1.203.292a2.29 2.29 0 0 0-.718.812 3.509 3.509 0 0 0-.38 1.104 7.248 7.248 0 0 0-.1 1.25V29.62c0 2.016.734 3.025 2.209 3.025 1.666 0 2.494-1.104 2.494-3.312zM111.593 30.339c0 1.057-.14 1.89-.432 2.5a3.067 3.067 0 0 1-1.292 1.39 5.58 5.58 0 0 1-1.921.626 18.42 18.42 0 0 1-2.401.14h-4.85V.339h6.772c.796 0 1.452.13 1.968.385.51.255.927.61 1.246 1.057.322.448.514.943.577 1.49.063.541.125 1.068.193 1.584v8.255c0 1.343-.256 2.286-.77 2.833-.511.541-1.407.864-2.688.959.77.129 1.374.27 1.822.432.448.161.819.369 1.104.625.292.255.464.604.532 1.052.063.448.11.979.14 1.588zm-3.307-24.574c0-1.025-.208-1.729-.625-2.114-.416-.38-1.135-.572-2.161-.572h-1.683V15.65h1.49c1.182 0 1.969-.156 2.354-.48.38-.316.59-.988.625-2.015zm.14 14.88c0-.609-.093-1.135-.286-1.582-.162-.355-.463-.58-.911-.672-.448-.099-1.25-.162-2.401-.194h-1.011V32.26h1.923c.896 0 1.567-.145 2.014-.432.448-.287.672-.926.672-1.921zM127.63 30.245c0 1.76-.532 3.041-1.59 3.838-1.05.802-2.363 1.203-3.931 1.203-1.792 0-3.15-.48-4.083-1.442-.928-.959-1.407-2.365-1.438-4.224V5.812c0-2.015.433-3.489 1.297-4.416.864-.927 2.271-1.39 4.224-1.39 3.677 0 5.521 1.968 5.521 5.9zm-3.172-24.048c0-1.25-.172-2.16-.527-2.738-.353-.573-.942-.875-1.775-.912-.511 0-.911.098-1.198.292a2.239 2.239 0 0 0-.723.812 3.46 3.46 0 0 0-.38 1.104 7.19 7.19 0 0 0-.1 1.25V29.62c0 2.016.734 3.025 2.209 3.025 1.666 0 2.494-1.104 2.494-3.312zM137.901 3.079v31.916h-3.167V3.079h-3.552V.339H141.5v2.74zM145.052 34.995h3.166V.339h-3.166zM162.958 30.292c0 1.41-.385 2.593-1.156 3.552-.766.963-2.048 1.442-3.838 1.442-.96 0-1.746-.13-2.35-.384a3.73 3.73 0 0 1-1.49-1.105 4.48 4.48 0 0 1-.818-1.537c-.161-.541-.238-1.167-.238-1.87V4.564c0-.573.093-1.136.286-1.677a4.178 4.178 0 0 1 .864-1.443c.386-.412.88-.766 1.49-1.052.609-.293 1.344-.417 2.209-.386.927 0 1.713.126 2.348.386.641.254 1.156.62 1.537 1.104a4.96 4.96 0 0 1 .864 1.63c.194.61.292 1.266.292 1.968v4.271h-3.172V5.047c0-.61-.078-1.172-.24-1.683-.161-.51-.64-.78-1.437-.817-.416 0-.74.084-.964.24a2.2 2.2 0 0 0-.572.625c-.161.255-.24.562-.24.911 0 .354-.03.672-.099.963v25.245c0 1.474.547 2.21 1.635 2.21 1.276 0 1.917-.798 1.917-2.402v-4.844h3.172zM175.869 30.15a6.33 6.33 0 0 1-.29 1.918 4.62 4.62 0 0 1-.913 1.635c-.416.48-.958.86-1.63 1.152-.672.285-1.474.431-2.4.431-1.73 0-3.006-.447-3.84-1.343-.832-.896-1.25-1.984-1.25-3.266v-5.281h3.167v4.563c0 .672.115 1.276.339 1.822.224.542.765.834 1.63.864.834 0 1.38-.27 1.635-.817.256-.541.38-1.183.38-1.921v-4.412a7.34 7.34 0 0 0-.285-2.115c-.194-.64-.402-1.166-.626-1.582l-4.656-8.115c-.542-.896-.896-1.678-1.052-2.35-.161-.671-.261-1.52-.292-2.546V5.093c0-3.39 1.698-5.088 5.088-5.088.995 0 1.808.126 2.448.386.642.255 1.136.604 1.49 1.052.349.448.609.979.766 1.588.162.605.224 1.245.192 1.917v4.323h-3.166v-4.37c0-1.567-.578-2.354-1.73-2.354-1.281 0-1.916.817-1.916 2.448v4.464c0 .353.047.672.14.963a10.296 10.296 0 0 0 .339.865c.125.287.317.656.573 1.104l4.703 8.062c.516.864.833 1.646.964 2.354.125.704.192 1.47.192 2.303z"/></svg>